<mxfile host="65bd71144e">
    <diagram id="i3PSdwbc-7dtkQ2wuf8m" name="Page-1">
        <mxGraphModel dx="768" dy="508" grid="1" gridSize="10" guides="1" tooltips="1" connect="1" arrows="1" fold="1" page="1" pageScale="1" pageWidth="1169" pageHeight="827" math="0" shadow="0">
            <root>
                <mxCell id="0"/>
                <mxCell id="1" parent="0"/>
                <mxCell id="2" value="n:undefined&lt;br&gt;foo1:地址&lt;br&gt;foo2:地址" style="rounded=0;whiteSpace=wrap;html=1;" parent="1" vertex="1">
                    <mxGeometry x="420" y="120" width="120" height="60" as="geometry"/>
                </mxCell>
                <mxCell id="3" value="GO全局对象" style="text;html=1;align=center;verticalAlign=middle;resizable=0;points=[];autosize=1;strokeColor=none;fillColor=none;" parent="1" vertex="1">
                    <mxGeometry x="440" y="90" width="80" height="20" as="geometry"/>
                </mxCell>
                <mxCell id="5" value="代码解析" style="text;html=1;align=center;verticalAlign=middle;resizable=0;points=[];autosize=1;strokeColor=none;fillColor=none;" parent="1" vertex="1">
                    <mxGeometry x="450" y="200" width="60" height="20" as="geometry"/>
                </mxCell>
                <mxCell id="7" value="" style="endArrow=classic;html=1;exitX=1;exitY=0.5;exitDx=0;exitDy=0;" parent="1" source="2" edge="1">
                    <mxGeometry width="50" height="50" relative="1" as="geometry">
                        <mxPoint x="680" y="270" as="sourcePoint"/>
                        <mxPoint x="600" y="150" as="targetPoint"/>
                    </mxGeometry>
                </mxCell>
                <mxCell id="8" value="n:100&lt;br&gt;foo1:地址&lt;br&gt;foo2:地址" style="rounded=0;whiteSpace=wrap;html=1;" parent="1" vertex="1">
                    <mxGeometry x="600" y="120" width="120" height="60" as="geometry"/>
                </mxCell>
                <mxCell id="9" value="代码执行" style="text;html=1;align=center;verticalAlign=middle;resizable=0;points=[];autosize=1;strokeColor=none;fillColor=none;" parent="1" vertex="1">
                    <mxGeometry x="630" y="190" width="60" height="20" as="geometry"/>
                </mxCell>
                <mxCell id="10" value="GO全局对象" style="text;html=1;align=center;verticalAlign=middle;resizable=0;points=[];autosize=1;strokeColor=none;fillColor=none;" parent="1" vertex="1">
                    <mxGeometry x="610" y="90" width="80" height="20" as="geometry"/>
                </mxCell>
                <mxCell id="13" value="" style="rounded=0;whiteSpace=wrap;html=1;" parent="1" vertex="1">
                    <mxGeometry x="120" y="50" width="220" height="410" as="geometry"/>
                </mxCell>
                <mxCell id="14" value="全局代码&lt;br&gt;foo1弹出&lt;br&gt;foo2弹出&lt;br&gt;console.log(n)&lt;br&gt;打印：100" style="rounded=0;whiteSpace=wrap;html=1;" parent="1" vertex="1">
                    <mxGeometry x="150" y="370" width="160" height="70" as="geometry"/>
                </mxCell>
                <mxCell id="15" value="调用栈" style="text;html=1;align=center;verticalAlign=middle;resizable=0;points=[];autosize=1;strokeColor=none;fillColor=none;" parent="1" vertex="1">
                    <mxGeometry x="185" y="20" width="50" height="20" as="geometry"/>
                </mxCell>
                <mxCell id="16" value="foo2&lt;br&gt;执行console.log(n)&lt;br&gt;打印：200&lt;br&gt;加载foo1函数&lt;br&gt;" style="rounded=0;whiteSpace=wrap;html=1;" parent="1" vertex="1">
                    <mxGeometry x="150" y="290" width="160" height="60" as="geometry"/>
                </mxCell>
                <mxCell id="17" value="n:200&lt;br&gt;foo1:地址" style="rounded=0;whiteSpace=wrap;html=1;" parent="1" vertex="1">
                    <mxGeometry x="440" y="470" width="170" height="90" as="geometry"/>
                </mxCell>
                <mxCell id="18" value="VO对象：foo2" style="text;html=1;align=center;verticalAlign=middle;resizable=0;points=[];autosize=1;strokeColor=none;fillColor=none;" parent="1" vertex="1">
                    <mxGeometry x="440" y="424" width="90" height="20" as="geometry"/>
                </mxCell>
                <mxCell id="19" value="{}" style="rounded=0;whiteSpace=wrap;html=1;" parent="1" vertex="1">
                    <mxGeometry x="660" y="470" width="180" height="90" as="geometry"/>
                </mxCell>
                <mxCell id="20" value="VO对象：foo1&lt;br&gt;" style="text;html=1;align=center;verticalAlign=middle;resizable=0;points=[];autosize=1;strokeColor=none;fillColor=none;" parent="1" vertex="1">
                    <mxGeometry x="670" y="424" width="90" height="20" as="geometry"/>
                </mxCell>
                <mxCell id="21" value="" style="shape=flexArrow;endArrow=classic;html=1;exitX=1;exitY=0.5;exitDx=0;exitDy=0;entryX=0.012;entryY=0.433;entryDx=0;entryDy=0;entryPerimeter=0;" parent="1" source="16" target="17" edge="1">
                    <mxGeometry width="50" height="50" relative="1" as="geometry">
                        <mxPoint x="370" y="340" as="sourcePoint"/>
                        <mxPoint x="420" y="290" as="targetPoint"/>
                    </mxGeometry>
                </mxCell>
                <mxCell id="23" value="foo1&lt;br&gt;执行console.log(n)&lt;br&gt;打印：100" style="rounded=0;whiteSpace=wrap;html=1;" parent="1" vertex="1">
                    <mxGeometry x="150" y="210" width="160" height="60" as="geometry"/>
                </mxCell>
                <mxCell id="26" value="" style="shape=flexArrow;endArrow=classic;html=1;entryX=0.05;entryY=0.022;entryDx=0;entryDy=0;entryPerimeter=0;exitX=1;exitY=0.5;exitDx=0;exitDy=0;" parent="1" source="23" target="19" edge="1">
                    <mxGeometry width="50" height="50" relative="1" as="geometry">
                        <mxPoint x="420" y="320" as="sourcePoint"/>
                        <mxPoint x="470" y="270" as="targetPoint"/>
                    </mxGeometry>
                </mxCell>
                <mxCell id="27" value="在vo对象中没有n&lt;br&gt;则向父作用域寻找，父作用域是GO" style="text;html=1;align=center;verticalAlign=middle;resizable=0;points=[];autosize=1;strokeColor=none;fillColor=none;" parent="1" vertex="1">
                    <mxGeometry x="470" y="305" width="200" height="30" as="geometry"/>
                </mxCell>
                <mxCell id="28" value="" style="shape=flexArrow;endArrow=classic;html=1;exitX=0.75;exitY=0;exitDx=0;exitDy=0;entryX=0.917;entryY=0.983;entryDx=0;entryDy=0;entryPerimeter=0;" parent="1" source="19" target="8" edge="1">
                    <mxGeometry width="50" height="50" relative="1" as="geometry">
                        <mxPoint x="790" y="460" as="sourcePoint"/>
                        <mxPoint x="820" y="440" as="targetPoint"/>
                    </mxGeometry>
                </mxCell>
                <mxCell id="29" value="" style="shape=flexArrow;endArrow=classic;html=1;exitX=1;exitY=0.75;exitDx=0;exitDy=0;entryX=0;entryY=1;entryDx=0;entryDy=0;" parent="1" source="14" target="8" edge="1">
                    <mxGeometry width="50" height="50" relative="1" as="geometry">
                        <mxPoint x="460" y="360" as="sourcePoint"/>
                        <mxPoint x="510" y="310" as="targetPoint"/>
                    </mxGeometry>
                </mxCell>
            </root>
        </mxGraphModel>
    </diagram>
</mxfile>